<?xml version="1.0" encoding="utf-8"?>
<!-- Generator: Adobe Illustrator 25.0.1, SVG Export Plug-In . SVG Version: 6.00 Build 0)  -->
<svg version="1.1" id="Layer_1" xmlns="http://www.w3.org/2000/svg" xmlns:xlink="http://www.w3.org/1999/xlink" x="0px" y="0px"
	 viewBox="0 0 40 20" style="enable-background:new 0 0 40 20;" xml:space="preserve">
<style type="text/css">
	.st0{fill:#9267CB;}
</style>
<g>
	<g>
		<path class="st0" d="M6.4,5.3h4c0.9-0.1,1.7,0.2,2.4,0.8c0.5,0.5,0.7,1.2,0.7,1.9c0.1,0.9-0.5,1.7-1.3,2c0.5,0.2,1,0.5,1.3,0.9
			c0.2,0.4,0.4,0.8,0.4,1.3c0,0.8-0.3,1.5-0.8,2.1c-0.7,0.6-1.6,0.9-2.5,0.8H6.4V5.3z M10.1,9.3c0.5,0,0.9-0.1,1.3-0.3
			c0.3-0.2,0.4-0.6,0.4-0.9c0-0.8-0.5-1.2-1.4-1.2H8v2.4H10.1z M10.7,13.6c0.4,0.1,0.8-0.1,1.1-0.4c0.2-0.3,0.3-0.6,0.3-0.9
			c0-1-0.6-1.5-1.8-1.5H8v2.8L10.7,13.6z"/>
		<path class="st0" d="M18.7,15.3c-0.9,0-1.8-0.3-2.4-1c-0.6-0.8-0.9-1.7-0.9-2.7c-0.1-1,0.3-2,0.9-2.8c0.6-0.6,1.5-1,2.4-1
			c0.8,0,1.6,0.3,2.2,0.9c0.6,0.7,1,1.6,0.9,2.5v1H17c0,0.5,0.2,0.9,0.5,1.2c0.3,0.3,0.8,0.5,1.2,0.5c0.6,0,1.2-0.3,1.5-0.8l1,1.1
			C20.6,14.9,19.7,15.3,18.7,15.3z M17,10.8h3.2c0-0.4-0.2-0.8-0.5-1.1c-0.3-0.3-0.6-0.4-1-0.4c-0.4,0-0.8,0.1-1.2,0.3
			C17.2,9.9,17,10.4,17,10.8z"/>
		<path class="st0" d="M25.5,15.3c-1.1,0-1.7-0.6-1.7-1.8V9.4h-1V8h1V5.8L25.5,5v3h1.6v1.4h-1.6v3.8c-0.1,0.3,0.1,0.5,0.4,0.6
			c0.1,0,0.2,0,0.2,0l1.1-0.3L27,15C26.5,15.2,26,15.3,25.5,15.3z"/>
		<path class="st0" d="M32.8,15.1v-0.5c-0.5,0.5-1.2,0.7-1.9,0.7c-0.7,0-1.4-0.2-1.9-0.6c-0.5-0.5-0.8-1.1-0.7-1.8
			c-0.1-0.7,0.3-1.3,0.8-1.7c0.6-0.4,1.3-0.6,2-0.6c0.6,0,1.2,0.1,1.7,0.3v-0.3c0-0.4-0.1-0.7-0.4-1c-0.3-0.2-0.6-0.3-1-0.3
			c-0.8,0-1.5,0.2-2.2,0.6l-0.5-1.3c0.8-0.5,1.8-0.8,2.8-0.8c0,0,0.7,0,1,0.1c0.2,0,0.7,0.2,0.9,0.3c0.3,0.2,0.5,0.4,0.7,0.8
			c0.2,0.4,0.3,0.9,0.3,1.4V15L32.8,15.1z M31.2,13.9c0.6,0,1.2-0.3,1.6-0.7v-0.9c-0.5-0.2-1-0.3-1.5-0.3c-0.3-0.1-0.7,0-1,0.2
			c-0.2,0.1-0.4,0.4-0.4,0.7c0,0.3,0.1,0.5,0.3,0.7C30.5,13.8,30.8,13.9,31.2,13.9z"/>
	</g>
	<path class="st0" d="M35.9,1C37.6,1,39,2.4,39,4.1v11.8c0,1.7-1.4,3.1-3.1,3.1H4.1C2.4,19,1,17.6,1,15.9l0,0V4.1C1,2.4,2.4,1,4.1,1
		H35.9 M35.9,0H4.1C1.8,0,0,1.8,0,4.1v11.8C0,18.2,1.8,20,4.1,20l0,0h31.8c2.3,0,4.1-1.8,4.1-4.1V4.1C40,1.8,38.2,0,35.9,0z"/>
</g>
</svg>
