<svg xmlns="http://www.w3.org/2000/svg" viewBox="0 0 182.65 184.8"><defs><style>.cls-1{fill:#827aa3;}.cls-2{fill:#003057;}</style></defs><g id="Layer_2" data-name="Layer 2"><g id="Layer_1-2" data-name="Layer 1"><path class="cls-1" d="M60.7,38.65a92.88,92.88,0,0,0,0-33.29A91,91,0,0,0,32.21,22,91,91,0,0,0,60.7,38.65"/><path class="cls-1" d="M49.9,68.2a93.56,93.56,0,0,0,9.62-24.1,96.5,96.5,0,0,1-31.4-18.36A92.49,92.49,0,0,0,2.64,70.32,97.14,97.14,0,0,1,34,88.64,91.94,91.94,0,0,0,49.9,68.2"/><path class="cls-1" d="M122,38.63A91.1,91.1,0,0,0,150.44,22,91,91,0,0,0,122,5.37a93.62,93.62,0,0,0,0,33.26"/><path class="cls-1" d="M1.5,109A91.62,91.62,0,0,0,29.88,92.4,91.64,91.64,0,0,0,1.5,75.8,92.55,92.55,0,0,0,1.5,109"/><path class="cls-1" d="M122,146.16a93.62,93.62,0,0,0,0,33.26,90.77,90.77,0,0,0,28.4-16.62A91,91,0,0,0,122,146.16"/><path class="cls-1" d="M180,114.48a97.35,97.35,0,0,1-31.35-18.33,91.65,91.65,0,0,0-15.91,20.44,92.92,92.92,0,0,0-9.58,24.11,96.72,96.72,0,0,1,31.37,18.35A92.57,92.57,0,0,0,180,114.48"/><path class="cls-1" d="M28.12,159.05A96.57,96.57,0,0,1,59.48,140.7a92.57,92.57,0,0,0-9.58-24.11A91.33,91.33,0,0,0,34,96.16,97.35,97.35,0,0,1,2.65,114.48a92.41,92.41,0,0,0,25.47,44.57"/><path class="cls-1" d="M148.66,88.64A97.31,97.31,0,0,1,180,70.32a92.36,92.36,0,0,0-25.47-44.57,96.73,96.73,0,0,1-31.36,18.34,92.57,92.57,0,0,0,9.58,24.11,91.65,91.65,0,0,0,15.91,20.44"/><path class="cls-1" d="M181.15,75.8a92.09,92.09,0,0,0-28.39,16.59A91.92,91.92,0,0,0,181.15,109a92.55,92.55,0,0,0,0-33.19"/><path class="cls-1" d="M65.9,144.45a99.41,99.41,0,0,1,0,36.68,90.11,90.11,0,0,0,50.91,0,99.41,99.41,0,0,1,0-36.68,90.17,90.17,0,0,0-50.86,0"/><path class="cls-1" d="M60.62,179.43a93.68,93.68,0,0,0,0-33.27A90.93,90.93,0,0,0,32.21,162.8a91.15,91.15,0,0,0,28.41,16.63"/><path class="cls-1" d="M116.75,40.34a99.36,99.36,0,0,1,0-36.67,90.18,90.18,0,0,0-50.86,0,98.46,98.46,0,0,1,0,36.7A90.29,90.29,0,0,0,91.33,44a90.09,90.09,0,0,0,25.42-3.66"/><path class="cls-2" d="M128,71a98.47,98.47,0,0,1-10.06-25.22,95.55,95.55,0,0,1-26.61,3.79,95.28,95.28,0,0,1-26.58-3.78A99.34,99.34,0,0,1,54.65,71,97.5,97.5,0,0,1,38,92.4a96.81,96.81,0,0,1,16.61,21.42A97.91,97.91,0,0,1,64.71,139a95.35,95.35,0,0,1,53.23,0A98.63,98.63,0,0,1,128,113.82,97.1,97.1,0,0,1,144.61,92.4,97.81,97.81,0,0,1,128,71"/></g></g></svg>