<svg xmlns="http://www.w3.org/2000/svg" viewBox="0 0 26.67 20">
    <rect width="26.67" height="20" fill="#141219"/>
    <path
        d="M18,15.18H8.34a.29.29,0,0,1-.29-.28V5.27A.29.29,0,0,1,8.34,5H18a.28.28,0,0,1,.28.29V7.2a.08.08,0,0,1-.07.08h-.71a.08.08,0,0,1-.07-.08V6.12a.28.28,0,0,0-.28-.28H9.19a.27.27,0,0,0-.28.28V14a.28.28,0,0,0,.28.29h7.92a.29.29,0,0,0,.28-.29V13a.07.07,0,0,1,.07-.07h.71a.07.07,0,0,1,.07.07V14.9A.28.28,0,0,1,18,15.18Z"
        style="fill:#2f2a3c" />
    <path
        d="M18.44,9.66H14.21V8.18a.07.07,0,0,0-.12,0L12.19,10a.07.07,0,0,0,0,.1L14.09,12a.07.07,0,0,0,.12,0V10.51h4.23Z"
        style="fill:#2f2a3c" />
</svg>