<svg xmlns="http://www.w3.org/2000/svg" viewBox="0 0 27 27">
  <g>
    <path d="M0,27V4A4,4,0,0,1,4,0H23a4,4,0,0,1,4,4V27" fill="#25222e"/>
    <path d="M.5,27V4A3.5,3.5,0,0,1,4,.5H23.1A3.5,3.5,0,0,1,26.5,4V27" fill="none" stroke="#25222e" stroke-miterlimit="10"/>
    <polyline points="20.1 5.8 14.1 8 6.8 5.8" fill="none" stroke="#d8d8d8" stroke-linecap="round" stroke-linejoin="round" stroke-width="0.75"/>
    <polyline points="6.8 5.8 12.2 4.2 20.1 5.8" fill="none" stroke="#d8d8d8" stroke-linecap="round" stroke-linejoin="round" stroke-width="0.75"/>
    <polyline points="19.5 12.9 14.1 16.2 7.4 13.5" fill="none" stroke="#d8d8d8" stroke-linecap="round" stroke-linejoin="round" stroke-width="0.75"/>
    <line x1="6.8" y1="5.8" x2="7.4" y2="13.5" fill="none" stroke="#d8d8d8" stroke-linecap="round" stroke-linejoin="round" stroke-width="0.75"/>
    <line x1="14.1" y1="8" x2="14.1" y2="16.2" fill="none" stroke="#d8d8d8" stroke-linecap="round" stroke-linejoin="round" stroke-width="0.75"/>
    <line x1="20.1" y1="5.8" x2="19.5" y2="12.9" fill="none" stroke="#d8d8d8" stroke-linecap="round" stroke-linejoin="round" stroke-width="0.75"/>
    <g>
      <path d="M18.5,21.3a19.7,19.7,0,0,1-6.4.4A18.4,18.4,0,0,1,6,20.1a9.5,9.5,0,0,1-2.7-1.7,4.2,4.2,0,0,1-1.4-2.9,3.5,3.5,0,0,1,1.6-2.6,10.3,10.3,0,0,1,2.7-1.5A8.7,8.7,0,0,0,3.6,13a3,3,0,0,0-1.4,2.5,3.6,3.6,0,0,0,1.4,2.6,9.3,9.3,0,0,0,2.6,1.5,17.4,17.4,0,0,0,6,1.3,20.5,20.5,0,0,0,6-.7Z" fill="#d8d8d8"/>
      <polygon points="16.9 18.7 21.5 19.5 18.4 23.1 16.9 18.7" fill="#d8d8d8"/>
    </g>
    <path d="M20.6,11.4a8.6,8.6,0,0,1,2.9,1.4l1.2,1.1a3,3,0,0,1,.5,1.6h-.7a2.8,2.8,0,0,0-1.3-2.4A7.8,7.8,0,0,0,20.6,11.4Z" fill="#d8d8d8"/>
  </g>
</svg>
