<svg id="f83b72a1-eb1e-4a2e-b2cf-865592f9a030" data-name="Layer 1" xmlns="http://www.w3.org/2000/svg" width="13.6" height="13.7" viewBox="0 0 13.6 13.7"><g style="isolation:isolate"><path d="M8.9,9.7V9.2L9.8,9a.9.9,0,0,0,.3-.7h.5V13H10V9.7Z" transform="translate(-3.2 -3.1)" fill="#d8d8d8"/></g><path d="M3.6,7.7a6.8,6.8,0,0,1,8.7-4.1l1.2.6.4-1.1,1.2,3.1-3.4-.4,1.2-1L12,4.4A5.9,5.9,0,1,0,15.6,12a5.4,5.4,0,0,0,.3-2.5h.9a5.5,5.5,0,0,1-.4,2.8,6.8,6.8,0,0,1-8.7,4.1A6.8,6.8,0,0,1,3.6,7.7Z" transform="translate(-3.2 -3.1)" fill="#d8d8d8"/></svg>