<?xml version="1.0" encoding="utf-8"?>
<!-- Generator: Adobe Illustrator 24.2.3, SVG Export Plug-In . SVG Version: 6.00 Build 0)  -->
<svg version="1.1" id="Layer_1" xmlns="http://www.w3.org/2000/svg" xmlns:xlink="http://www.w3.org/1999/xlink" x="0px" y="0px"
	 viewBox="0 0 20 22" style="enable-background:new 0 0 20 20;" xml:space="preserve">
<rect x="-1429.4" y="-1856.4" style="display:none;" width="2079.1" height="2134.7"/>
<g>
	<text transform="matrix(1 0 0 1 8.6024 13.0179)" fill="#D8D8D8" font-family="sans-serif" font-size="6.8px">1</text>
	<path style="fill:#FFFFFF;" d="M16.4,7.7c-1.3-3.5-5.2-5.4-8.7-4.1C7.3,3.8,6.9,4,6.5,4.2L6.1,3.2L4.8,6.3l3.4-0.4l-1.2-1
		C7.4,4.7,7.7,4.6,8,4.5c3.1-1.1,6.5,0.5,7.6,3.6c1.1,3.1-0.5,6.5-3.6,7.6c-3.1,1.1-6.5-0.5-7.6-3.6C4.1,11.3,4,10.4,4.1,9.5H3.2
		c-0.1,0.9,0,1.9,0.4,2.8c1.3,3.5,5.2,5.4,8.7,4.1C15.8,15.2,17.7,11.3,16.4,7.7z"/>
</g>
</svg>
