<?xml version="1.0" encoding="UTF-8"?>
<svg width="25px" height="25px" viewBox="0 2 25 25" version="1.1" xmlns="http://www.w3.org/2000/svg" xmlns:xlink="http://www.w3.org/1999/xlink">
    <title>step-back</title>
    <g id="step-back" stroke="none" stroke-width="1" fill="none" fill-rule="evenodd">
        <g id="Group">
            <path d="M15,8.75 C15,9.4375 15.5625,10 16.25,10 L21.25,10 C21.9375,10 22.5,9.4375 22.5,8.75 L22.5,3.75 C22.5,3.0625 21.9375,2.5 21.25,2.5 C20.5625,2.5 20,3.0625 20,3.75 L20,5.925 C18.175,3.8375 15.5,2.5 12.5,2.5 C6.975,2.5 2.5,6.975 2.5,12.5 C2.5,17.575 6.275,21.75 11.175,22.4 C11.2,22.4 11.225,22.4125 11.25,22.4125 C11.6625,22.4625 12.075,22.5 12.5,22.5 C18.025,22.5 22.5,18.025 22.5,12.5 C22.5,11.8125 21.9375,11.25 21.25,11.25 C20.5625,11.25 20,11.8125 20,12.5 C20,16.6375 16.6375,20 12.5,20 C11.6125,20 10.7875,19.8125 10,19.525 L10,19.5375 C7.0875,18.5125 5,15.7625 5,12.5 C5,8.3625 8.3625,5 12.5,5 C14.7125,5 16.7,5.975 18.075,7.5 L16.25,7.5 C15.5625,7.5 15,8.0625 15,8.75 Z" id="Shape" fill="#D8D8D8" transform="translate(12.500000, 12.500000) scale(-1, 1) translate(-12.500000, -12.500000) "></path>
            <text id="1" font-family="Overpass-Light, Overpass" font-size="12" font-weight="300" fill="#D8D8D8">
                <tspan x="10.436" y="16.5">1</tspan>
            </text>
        </g>
    </g>
</svg>