<?xml version="1.0" encoding="utf-8"?>
<!-- Generator: Adobe Illustrator 24.2.3, SVG Export Plug-In . SVG Version: 6.00 Build 0)  -->
<svg version="1.1" id="Layer_1" xmlns="http://www.w3.org/2000/svg" xmlns:xlink="http://www.w3.org/1999/xlink" x="0px" y="0px"
	 viewBox="0 0 20 22" style="enable-background:new 0 0 20 20;" xml:space="preserve">
<rect x="-1453.4" y="-1856.4" style="display:none;" width="2079.1" height="2134.7"/>
<g>
	<text transform="matrix(1 0 0 1 8.2 13.0179)" fill="#D8D8D8" font-family="sans-serif" font-size="6.8px">1</text>
	<path style="fill:#D8D8D8;" d="M3.6,7.7c1.3-3.5,5.2-5.4,8.7-4.1c0.4,0.2,0.8,0.4,1.2,0.6l0.4-1.1l1.2,3.1l-3.4-0.4l1.2-1
		c-0.3-0.2-0.6-0.3-0.9-0.4C8.9,3.3,5.5,4.9,4.4,8c-1.1,3.1,0.5,6.5,3.6,7.6c3.1,1.1,6.5-0.5,7.6-3.6c0.3-0.8,0.4-1.7,0.3-2.5h0.9
		c0.1,0.9,0,1.9-0.4,2.8c-1.3,3.5-5.2,5.4-8.7,4.1C4.2,15.2,2.3,11.3,3.6,7.7z"/>
</g>
</svg>
